<svg width="320" height="320" viewBox="0 0 320 320" fill="none" xmlns="http://www.w3.org/2000/svg">
<rect width="320" height="320" rx="25" fill="#127780"/>
<g clip-path="url(#clip0_2_4)">
<path d="M104.444 77.2222C91.1966 77.5214 79.8718 86.1966 70.4701 103.205C60.5983 122.35 55.7265 143.632 55.812 167.051C55.9829 169.872 56.282 170.128 56.7521 167.863C60.7265 150.641 64.8718 137.179 69.188 127.436C73.4188 117.65 78.1196 109.615 83.2479 103.419C95.0427 89.7009 105.256 87.4786 113.932 96.7521C123.419 107.692 128.462 126.154 129.06 152.051C128.547 186.88 123.974 213.205 115.342 231.111C104.53 252.906 93.4188 260.171 82.1367 252.821C66.7521 240.556 58.2051 213.376 56.4957 171.368C55.8974 169.915 55.3419 170.983 54.9145 174.573C54.1026 178.932 53.547 183.718 53.2051 188.803C51.9231 211.624 54.9573 230.983 62.2649 246.88C69.7436 261.966 79.7008 269.615 92.1367 269.872C105.556 269.658 117.778 260.897 128.846 243.504C139.872 225.342 146.966 203.205 150.085 177.009C151.239 149.145 147.479 125.427 138.846 105.855C130.128 87.2222 118.718 77.6496 104.658 77.1367" fill="white"/>
<path d="M202.735 66.8803C195.855 55.5983 182.692 50.0855 163.248 50.4273C141.752 51.453 120.855 57.8632 100.598 69.6581C98.2479 71.1966 98.1624 71.6239 100.342 70.8974C117.265 65.7265 130.983 62.5641 141.538 61.453C152.137 60.2137 161.41 60.2564 169.359 61.6239C187.137 65 194.188 72.735 190.47 84.8718C185.727 98.547 172.265 112.137 150.128 125.641C119.701 142.607 94.6154 151.838 74.829 153.291C50.5128 154.829 38.7179 148.846 39.4444 135.385C42.4786 115.897 61.7094 94.9145 97.2222 72.3932C98.1624 71.1538 96.9658 71.2393 93.6752 72.6496C89.4872 74.1453 85.0855 76.0256 80.4701 78.2906C60.0855 88.5897 44.7863 100.897 34.7008 115.171C25.3846 129.188 23.7179 141.667 29.7008 152.521C36.5812 164.017 50.2991 170.214 70.8974 171.111C92.1367 171.581 114.872 166.667 139.103 156.239C163.803 143.291 182.479 128.205 195.085 110.94C206.88 94.0598 209.444 79.4017 202.863 66.9658" fill="white"/>
<path d="M260.855 146.838C267.179 135.214 265.385 121.068 255.342 104.402C243.675 86.282 227.692 71.4103 207.35 59.7863C204.829 58.5043 204.444 58.6325 206.154 60.1709C219.103 72.2222 228.675 82.5641 234.957 91.1111C241.325 99.7009 245.94 107.735 248.718 115.299C254.701 132.393 251.496 142.35 239.145 145.171C224.915 147.906 206.453 143.034 183.675 130.641C153.803 112.778 133.248 95.641 122.051 79.2735C108.59 58.9744 107.863 45.7692 119.872 39.6581C138.205 32.4786 165.983 38.6752 203.248 58.2051C204.786 58.3761 204.145 57.3932 201.239 55.2564C197.863 52.3504 194.017 49.4872 189.744 46.6239C170.641 34.1026 152.35 27.0513 134.915 25.4273C118.12 24.359 106.496 29.1453 100.043 39.7863C93.5043 51.4957 95 66.4957 104.53 84.7436C114.744 103.376 130.385 120.598 151.496 136.368C175.043 151.282 197.479 159.915 218.718 162.179C239.231 163.932 253.248 158.846 260.684 146.923" fill="white"/>
<path d="M220.684 237.137C233.932 236.838 245.256 228.162 254.658 211.154C264.53 192.009 269.402 170.726 269.316 147.308C269.145 144.487 268.846 144.231 268.376 146.496C264.402 163.718 260.256 177.179 255.94 186.923C251.709 196.709 247.009 204.744 241.88 210.94C230.085 224.658 219.872 226.88 211.197 217.607C201.709 206.667 196.667 188.205 196.068 162.308C196.581 127.479 201.154 101.154 209.786 83.2479C220.598 61.453 231.709 54.188 242.991 61.5385C258.376 73.8034 266.923 100.983 268.632 142.991C269.231 144.444 269.786 143.376 270.214 139.786C271.026 135.427 271.581 130.641 271.923 125.556C273.205 102.735 270.171 83.3761 262.863 67.4786C255.385 52.3932 245.427 44.7436 232.991 44.4872C219.573 44.7009 207.35 53.4615 196.282 70.8547C185.256 89.0171 178.162 111.154 175.043 137.35C173.889 165.214 177.65 188.932 186.282 208.504C195 227.137 206.41 236.709 220.47 237.222" fill="white"/>
<path d="M64.2735 167.521C57.9487 179.145 59.7436 193.291 69.7863 209.957C81.453 228.077 97.4359 242.949 117.778 254.573C120.299 255.855 120.684 255.726 118.974 254.188C106.026 242.137 96.453 231.795 90.1709 223.248C83.8034 214.658 79.188 206.624 76.4102 199.06C70.4273 181.966 73.6325 172.009 85.9829 169.188C100.214 166.453 118.675 171.325 141.453 183.718C171.325 201.581 191.88 218.718 203.077 235.085C216.538 255.385 217.265 268.59 205.256 274.701C186.923 281.88 159.145 275.684 121.88 256.154C120.342 255.983 120.983 256.966 123.889 259.103C127.265 262.009 131.111 264.872 135.385 267.735C154.487 280.256 172.778 287.308 190.214 288.932C207.009 290 218.632 285.214 225.085 274.573C231.624 262.863 230.128 247.863 220.598 229.615C210.385 210.983 194.744 193.761 173.632 177.991C150.085 163.077 127.65 154.444 106.41 152.179C85.8974 150.427 71.8803 155.513 64.4444 167.436" fill="white"/>
<path d="M122.393 247.479C129.274 258.761 142.436 264.274 161.88 263.932C183.376 262.906 204.274 256.496 224.53 244.701C226.88 243.162 226.966 242.735 224.786 243.462C207.863 248.632 194.145 251.795 183.59 252.906C172.991 254.145 163.718 254.103 155.769 252.735C137.991 249.359 130.94 241.624 134.658 229.487C139.402 215.812 152.863 202.222 175 188.718C205.427 171.752 230.513 162.521 250.299 161.068C274.615 159.53 286.41 165.513 285.684 178.974C282.735 198.419 263.504 219.402 227.949 241.923C227.009 243.162 228.205 243.077 231.496 241.667C235.684 240.171 240.085 238.291 244.701 236.026C265.085 225.727 280.385 213.419 290.47 199.145C299.786 185.128 301.453 172.65 295.47 161.795C288.59 150.299 274.872 144.103 254.316 143.205C233.077 142.735 210.342 147.65 186.111 158.077C161.41 171.026 142.735 186.111 130.128 203.376C118.333 220.256 115.769 234.915 122.35 247.35" fill="white"/>
</g>
<defs>
<clipPath id="clip0_2_4">
<rect width="300" height="300" fill="white" transform="translate(10 10)"/>
</clipPath>
</defs>
</svg>
